<?xml version="1.0" encoding="UTF-8"?>
<svg xmlns="http://www.w3.org/2000/svg" width="1040" height="480" viewBox="0 0 1040 480" role="img" aria-labelledby="title desc">
<title id="title">需求 03｜粗糙度量化与采样分析</title><desc id="desc">ROUGHNESS  ·  PARALLEL SAMPLING + LENGTH-WEIGHTED EVALUATION</desc>
<defs><marker id="arrow" viewBox="0 0 8 8" refX="7" refY="4" markerWidth="6" markerHeight="6" orient="auto"><path d="M0 0 L8 4 L0 8 Z" fill="#454545"/></marker></defs>
<rect width="1040" height="480" fill="#fff"/>
<g font-family="Arial, 'PingFang SC', 'Microsoft YaHei', sans-serif" fill="#222">
<text x="36" y="37" font-size="22" font-weight="600" text-anchor="start" fill="#222">需求 03｜粗糙度量化与采样分析</text>
<text x="36" y="61" font-size="13" font-weight="400" text-anchor="start" fill="#666" letter-spacing="1.1">ROUGHNESS  ·  PARALLEL SAMPLING + LENGTH-WEIGHTED EVALUATION</text>
<path d="M36 77 H1004" fill="none" stroke="#aaa" stroke-width="0.8"/>
<rect x="36" y="99" width="236" height="46" fill="#f4f4f4" stroke="#aaa" stroke-width="0.8"/>
<text x="154.0" y="128" font-size="15" font-weight="400" text-anchor="middle" fill="#222">裂隙轮廓与正弦拟合残差</text>
<path d="M154 145 L154 205" fill="none" stroke="#454545" stroke-width="1.25" stroke-linejoin="round" marker-end="url(#arrow)"/>
<rect x="36" y="207" width="236" height="126" fill="#fff" stroke="#555" stroke-width="1"/>
<text x="154.0" y="237" font-size="17" font-weight="600" text-anchor="middle" fill="#222">趋势处理</text>
<text x="154.0" y="264" font-size="14" font-weight="400" text-anchor="middle" fill="#555">默认分析去趋势残差</text>
<text x="154.0" y="287" font-size="14" font-weight="400" text-anchor="middle" fill="#555">可选择保留原始趋势</text>
<rect x="340" y="171" width="236" height="198" fill="#fff" stroke="#aaa" stroke-width="0.8"/>
<text x="358" y="194" font-size="14" font-weight="600" text-anchor="start" fill="#222">并行采样策略</text>
<rect x="358" y="211" width="200" height="38" fill="#fff" stroke="#555" stroke-width="1"/>
<text x="458" y="236" font-size="15" font-weight="500" text-anchor="middle" fill="#222">等间距采样</text>
<rect x="358" y="265" width="200" height="38" fill="#fff" stroke="#555" stroke-width="1"/>
<text x="458" y="290" font-size="15" font-weight="500" text-anchor="middle" fill="#222">坡度自适应采样</text>
<rect x="358" y="319" width="200" height="38" fill="#fff" stroke="#555" stroke-width="1"/>
<text x="458" y="344" font-size="15" font-weight="500" text-anchor="middle" fill="#222">曲率驱动采样</text>
<path d="M272 270 L308 270 L308 230 L356 230" fill="none" stroke="#454545" stroke-width="1.25" stroke-linejoin="round" marker-end="url(#arrow)"/>
<line x1="308" y1="230" x2="308" y2="338" stroke="#454545" stroke-width="1.2"/>
<path d="M308 284 L356 284" fill="none" stroke="#454545" stroke-width="1.25" stroke-linejoin="round" marker-end="url(#arrow)"/>
<path d="M308 338 L356 338" fill="none" stroke="#454545" stroke-width="1.25" stroke-linejoin="round" marker-end="url(#arrow)"/>
<path d="M558 230 H608" fill="none" stroke="#454545" stroke-width="1.2"/>
<path d="M558 284 H608" fill="none" stroke="#454545" stroke-width="1.2"/>
<path d="M558 338 H608" fill="none" stroke="#454545" stroke-width="1.2"/>
<line x1="608" y1="230" x2="608" y2="338" stroke="#454545" stroke-width="1.2"/>
<path d="M608 270 L646 270" fill="none" stroke="#454545" stroke-width="1.25" stroke-linejoin="round" marker-end="url(#arrow)"/>
<rect x="648" y="207" width="356" height="126" fill="#fff" stroke="#555" stroke-width="1"/>
<text x="826.0" y="237" font-size="17" font-weight="600" text-anchor="middle" fill="#222">粗糙度指标</text>
<text x="826.0" y="264" font-size="14" font-weight="400" text-anchor="middle" fill="#555">长度加权 Z₂：适配非等间距点列</text>
<text x="826.0" y="287" font-size="14" font-weight="400" text-anchor="middle" fill="#555"></text>
<text x="826.0" y="310" font-size="14" font-weight="400" text-anchor="middle" fill="#555">同时记录原始值、0–20 限幅值与标记</text>
<text x="826" y="287" text-anchor="middle" font-size="17" font-family="Georgia, Times New Roman, serif" font-style="italic">JRC<tspan baseline-shift="sub" font-size="12">raw</tspan><tspan> = 51.85 × Z</tspan><tspan baseline-shift="sub" font-size="12">2</tspan><tspan baseline-shift="super" font-size="12">0.6</tspan><tspan> − 10.37</tspan></text>
<path d="M826 333 L826 385" fill="none" stroke="#454545" stroke-width="1.25" stroke-linejoin="round" marker-end="url(#arrow)"/>
<rect x="36" y="387" width="968" height="46" fill="#f4f4f4" stroke="#aaa" stroke-width="0.8"/>
<text x="520.0" y="416" font-size="15" font-weight="400" text-anchor="middle" fill="#222">量化成果：采样方法对比 · 采样密度敏感性 · 含 JRC 的裂隙参数表</text>
<text x="36" y="462" font-size="13" font-weight="400" text-anchor="start" fill="#666">方法对比默认使用 50 个采样点；密度敏感性比较 20 / 50 / 100 / 200 个采样点。</text>
</g></svg>
