<?xml version="1.0" encoding="UTF-8"?>
<svg xmlns="http://www.w3.org/2000/svg" width="1040" height="418" viewBox="0 0 1040 418" role="img" aria-labelledby="title desc">
<title id="title">需求 01｜裂隙识别与连续性增强</title><desc id="desc">SEGMENTATION  ·  ALTERNATIVE BACKENDS + STRUCTURE-AWARE REPAIR</desc>
<defs><marker id="arrow" viewBox="0 0 8 8" refX="7" refY="4" markerWidth="6" markerHeight="6" orient="auto"><path d="M0 0 L8 4 L0 8 Z" fill="#454545"/></marker></defs>
<rect width="1040" height="418" fill="#fff"/>
<g font-family="Arial, 'PingFang SC', 'Microsoft YaHei', sans-serif" fill="#222">
<text x="36" y="37" font-size="22" font-weight="600" text-anchor="start" fill="#222">需求 01｜裂隙识别与连续性增强</text>
<text x="36" y="61" font-size="13" font-weight="400" text-anchor="start" fill="#666" letter-spacing="1.1">SEGMENTATION  ·  ALTERNATIVE BACKENDS + STRUCTURE-AWARE REPAIR</text>
<path d="M36 77 H1004" fill="none" stroke="#aaa" stroke-width="0.8"/>
<rect x="36" y="99" width="430" height="46" fill="#f4f4f4" stroke="#aaa" stroke-width="0.8"/>
<text x="251.0" y="128" font-size="15" font-weight="400" text-anchor="middle" fill="#222">钻孔展开图像</text>
<path d="M251 145 L251 168" fill="none" stroke="#454545" stroke-width="1.25" stroke-linejoin="round" marker-end="url(#arrow)"/>
<rect x="36" y="170" width="430" height="190" fill="#fff" stroke="#aaa" stroke-width="0.8"/>
<text x="54" y="192" font-size="14" font-weight="600" text-anchor="start" fill="#222">分割后端 · 二选一</text>
<rect x="54" y="207" width="394" height="62" fill="#fff" stroke="#555" stroke-width="1"/>
<text x="251.0" y="233" font-size="17" font-weight="600" text-anchor="middle" fill="#222">经典图像分割</text>
<text x="251.0" y="257" font-size="14" font-weight="400" text-anchor="middle" fill="#555">列光照校正 → Black-hat / Otsu → 竖纹抑制</text>
<rect x="54" y="287" width="394" height="62" fill="#fff" stroke="#555" stroke-width="1"/>
<text x="251.0" y="313" font-size="17" font-weight="600" text-anchor="middle" fill="#222">U-Net 概率分割</text>
<text x="251.0" y="337" font-size="14" font-weight="400" text-anchor="middle" fill="#555">深度分块 → 重叠区平均 → 阈值二值化</text>
<rect x="530" y="204" width="230" height="144" fill="#fff" stroke="#555" stroke-width="1"/>
<text x="645.0" y="234" font-size="17" font-weight="600" text-anchor="middle" fill="#222">结构连续性修复</text>
<text x="645.0" y="261" font-size="14" font-weight="400" text-anchor="middle" fill="#555">形态学闭运算</text>
<text x="645.0" y="284" font-size="14" font-weight="400" text-anchor="middle" fill="#555">Hough 支持的短缺口连接</text>
<text x="645.0" y="307" font-size="14" font-weight="400" text-anchor="middle" fill="#555">正弦拟合支持的轨迹修复</text>
<rect x="810" y="204" width="194" height="144" fill="#f4f4f4" stroke="#555" stroke-width="1"/>
<text x="907.0" y="234" font-size="17" font-weight="600" text-anchor="middle" fill="#222">识别成果</text>
<text x="907.0" y="261" font-size="14" font-weight="400" text-anchor="middle" fill="#555">原始掩码</text>
<text x="907.0" y="284" font-size="14" font-weight="400" text-anchor="middle" fill="#555">增强掩码</text>
<text x="907.0" y="307" font-size="14" font-weight="400" text-anchor="middle" fill="#555">图像叠加预览</text>
<path d="M448 238 L490 238 L490 276 L528 276" fill="none" stroke="#454545" stroke-width="1.25" stroke-linejoin="round" marker-end="url(#arrow)"/>
<path d="M448 318 H490" fill="none" stroke="#454545" stroke-width="1.2"/>
<line x1="490" y1="318" x2="490" y2="276" stroke="#454545" stroke-width="1.2"/>
<path d="M760 276 L808 276" fill="none" stroke="#454545" stroke-width="1.25" stroke-linejoin="round" marker-end="url(#arrow)"/>
<text x="36" y="400" font-size="13" font-weight="400" text-anchor="start" fill="#666">经典后端为默认路径；指定模型后使用 U-Net。输出掩码以黑色表示裂隙、白色表示背景。</text>
</g></svg>
